<svg width="80" height="80" viewBox="0 0 80 80" fill="none" xmlns="http://www.w3.org/2000/svg">
<g opacity="0.9" clip-path="url(#clip0_18_21)">
<path d="M78.3517 20.7961C77.4295 17.369 74.7275 14.6676 71.301 13.7447C65.0406 12.0315 39.9992 12.0315 39.9992 12.0315C39.9992 12.0315 14.9584 12.0315 8.69808 13.6794C5.3375 14.6017 2.56957 17.3696 1.64733 20.7961C0 27.0558 0 40.038 0 40.038C0 40.038 0 53.0854 1.64733 59.2798C2.57018 62.7063 5.27158 65.4083 8.69869 66.3312C15.0244 68.0444 39.9998 68.0444 39.9998 68.0444C39.9998 68.0444 65.0406 68.0444 71.301 66.3965C74.7281 65.4743 77.4295 62.7722 78.3523 59.3457C79.9997 53.0854 79.9997 40.1039 79.9997 40.1039C79.9997 40.1039 80.0656 27.0558 78.3517 20.7961Z" fill="#FF0000"/>
<path d="M32.0262 52.0312L52.8496 40.0378L32.0262 28.0444V52.0312Z" fill="white"/>
</g>
<defs>
<clipPath id="clip0_18_21">
<rect width="80" height="80" fill="white"/>
</clipPath>
</defs>
</svg>
